<svg width="32" height="32" viewBox="0 0 32 32" fill="none" xmlns="http://www.w3.org/2000/svg">
<path d="M15.9997 16C16.733 16 17.361 15.7386 17.8837 15.216C18.4055 14.6942 18.6663 14.0666 18.6663 13.3333C18.6663 12.6 18.4055 11.972 17.8837 11.4493C17.361 10.9275 16.733 10.6666 15.9997 10.6666C15.2663 10.6666 14.6388 10.9275 14.117 11.4493C13.5943 11.972 13.333 12.6 13.333 13.3333C13.333 14.0666 13.5943 14.6942 14.117 15.216C14.6388 15.7386 15.2663 16 15.9997 16ZM15.9997 29.3333C12.4219 26.2888 9.7499 23.4608 7.98367 20.8493C6.21656 18.2386 5.33301 15.8222 5.33301 13.6C5.33301 10.2666 6.40545 7.61107 8.55034 5.63329C10.6943 3.65551 13.1775 2.66663 15.9997 2.66663C18.8219 2.66663 21.305 3.65551 23.449 5.63329C25.5939 7.61107 26.6663 10.2666 26.6663 13.6C26.6663 15.8222 25.7832 18.2386 24.017 20.8493C22.2499 23.4608 19.5775 26.2888 15.9997 29.3333Z" fill="url(#paint0_linear_112_3356)"/>
<defs>
<linearGradient id="paint0_linear_112_3356" x1="15.9997" y1="2.66663" x2="15.9997" y2="29.3333" gradientUnits="userSpaceOnUse">
<stop stop-color="#FFD584"/>
<stop offset="1" stop-color="#866000"/>
</linearGradient>
</defs>
</svg>
