
<svg width="272" height="42" viewBox="0 0 272 42" fill="none" xmlns="http://www.w3.org/2000/svg">
<path d="M136 24C136.825 24 137.532 23.706 138.12 23.118C138.707 22.531 139 21.825 139 21C139 20.175 138.707 19.4685 138.12 18.8805C137.532 18.2935 136.825 18 136 18C135.175 18 134.469 18.2935 133.882 18.8805C133.294 19.4685 133 20.175 133 21C133 21.825 133.294 22.531 133.882 23.118C134.469 23.706 135.175 24 136 24ZM136 39C131.975 35.575 128.969 32.3935 126.982 29.4555C124.994 26.5185 124 23.8 124 21.3C124 17.55 125.207 14.5625 127.62 12.3375C130.032 10.1125 132.825 9 136 9C139.175 9 141.969 10.1125 144.381 12.3375C146.794 14.5625 148 17.55 148 21.3C148 23.8 147.007 26.5185 145.02 29.4555C143.032 32.3935 140.025 35.575 136 39Z" fill="#E31900"/>
<path d="M3.128 16.896V20.744H7.736V22.128H3.128V27H1.416V15.512H8.536V16.896H3.128ZM14.5669 25.648C14.9989 25.648 15.3669 25.5973 15.6709 25.496C15.9802 25.3947 16.2309 25.256 16.4229 25.08C16.6202 24.904 16.7642 24.696 16.8549 24.456C16.9455 24.2107 16.9909 23.944 16.9909 23.656C16.9909 23.0853 16.7935 22.6373 16.3989 22.312C16.0042 21.9813 15.3935 21.816 14.5669 21.816H12.1669V25.648H14.5669ZM12.1669 16.848V20.608H14.1269C14.9642 20.608 15.5855 20.44 15.9909 20.104C16.4015 19.7627 16.6069 19.304 16.6069 18.728C16.6069 18.072 16.4122 17.5947 16.0229 17.296C15.6335 16.9973 15.0282 16.848 14.2069 16.848H12.1669ZM14.2069 15.512C14.9269 15.512 15.5429 15.5813 16.0549 15.72C16.5722 15.8587 16.9962 16.0587 17.3269 16.32C17.6575 16.5813 17.9002 16.8987 18.0549 17.272C18.2149 17.64 18.2949 18.0587 18.2949 18.528C18.2949 18.8053 18.2522 19.072 18.1669 19.328C18.0815 19.584 17.9509 19.824 17.7749 20.048C17.5989 20.2667 17.3775 20.464 17.1109 20.64C16.8442 20.816 16.5295 20.9627 16.1669 21.08C17.8362 21.4107 18.6709 22.2827 18.6709 23.696C18.6709 24.1867 18.5802 24.6347 18.3989 25.04C18.2175 25.44 17.9535 25.7867 17.6069 26.08C17.2602 26.3733 16.8335 26.6 16.3269 26.76C15.8202 26.92 15.2442 27 14.5989 27H10.4629V15.512H14.2069ZM24.9575 25.648C25.3895 25.648 25.7575 25.5973 26.0615 25.496C26.3708 25.3947 26.6215 25.256 26.8135 25.08C27.0108 24.904 27.1548 24.696 27.2455 24.456C27.3362 24.2107 27.3815 23.944 27.3815 23.656C27.3815 23.0853 27.1842 22.6373 26.7895 22.312C26.3948 21.9813 25.7842 21.816 24.9575 21.816H22.5575V25.648H24.9575ZM22.5575 16.848V20.608H24.5175C25.3548 20.608 25.9762 20.44 26.3815 20.104C26.7922 19.7627 26.9975 19.304 26.9975 18.728C26.9975 18.072 26.8028 17.5947 26.4135 17.296C26.0242 16.9973 25.4188 16.848 24.5975 16.848H22.5575ZM24.5975 15.512C25.3175 15.512 25.9335 15.5813 26.4455 15.72C26.9628 15.8587 27.3868 16.0587 27.7175 16.32C28.0482 16.5813 28.2908 16.8987 28.4455 17.272C28.6055 17.64 28.6855 18.0587 28.6855 18.528C28.6855 18.8053 28.6428 19.072 28.5575 19.328C28.4722 19.584 28.3415 19.824 28.1655 20.048C27.9895 20.2667 27.7682 20.464 27.5015 20.64C27.2348 20.816 26.9202 20.9627 26.5575 21.08C28.2268 21.4107 29.0615 22.2827 29.0615 23.696C29.0615 24.1867 28.9708 24.6347 28.7895 25.04C28.6082 25.44 28.3442 25.7867 27.9975 26.08C27.6508 26.3733 27.2242 26.6 26.7175 26.76C26.2108 26.92 25.6348 27 24.9895 27H20.8535V15.512H24.5975ZM44.699 15.512V27H42.995V21.824H37.003V27H35.291V15.512H37.003V20.584H42.995V15.512H44.699ZM58.245 21.256C58.245 22.1147 58.1063 22.904 57.829 23.624C57.557 24.3387 57.1703 24.9573 56.669 25.48C56.1677 25.9973 55.5677 26.4 54.869 26.688C54.1703 26.976 53.3943 27.12 52.541 27.12C51.693 27.12 50.917 26.976 50.213 26.688C49.5143 26.4 48.9143 25.9973 48.413 25.48C47.917 24.9573 47.5303 24.3387 47.253 23.624C46.9757 22.904 46.837 22.1147 46.837 21.256C46.837 20.4027 46.9757 19.616 47.253 18.896C47.5303 18.176 47.917 17.5573 48.413 17.04C48.9143 16.5173 49.5143 16.112 50.213 15.824C50.917 15.5307 51.693 15.384 52.541 15.384C53.3943 15.384 54.1703 15.5307 54.869 15.824C55.5677 16.112 56.1677 16.5173 56.669 17.04C57.1703 17.5573 57.557 18.176 57.829 18.896C58.1063 19.616 58.245 20.4027 58.245 21.256ZM56.501 21.256C56.501 20.5733 56.4077 19.96 56.221 19.416C56.0343 18.872 55.7677 18.4107 55.421 18.032C55.0797 17.6533 54.6637 17.3627 54.173 17.16C53.6877 16.9573 53.1437 16.856 52.541 16.856C51.9383 16.856 51.3917 16.9573 50.901 17.16C50.4157 17.3627 49.9997 17.6533 49.653 18.032C49.3063 18.4107 49.0397 18.872 48.853 19.416C48.6663 19.96 48.573 20.5733 48.573 21.256C48.573 21.944 48.6663 22.56 48.853 23.104C49.0397 23.6427 49.3063 24.1013 49.653 24.48C49.9997 24.8587 50.4157 25.1493 50.901 25.352C51.3917 25.5493 51.9383 25.648 52.541 25.648C53.1437 25.648 53.6877 25.5493 54.173 25.352C54.6637 25.1493 55.0797 24.8587 55.421 24.48C55.7677 24.1013 56.0343 23.6427 56.221 23.104C56.4077 22.56 56.501 21.944 56.501 21.256ZM66.9608 25.568V27H60.3848V15.512H62.0888V25.568H66.9608ZM78.6431 21.256C78.6431 22.1147 78.5045 22.896 78.2271 23.6C77.9551 24.304 77.5685 24.9093 77.0671 25.416C76.5658 25.9173 75.9658 26.3067 75.2671 26.584C74.5685 26.8613 73.7925 27 72.9391 27H68.6191V15.512H72.9391C73.7925 15.512 74.5685 15.6507 75.2671 15.928C75.9658 16.2053 76.5658 16.5973 77.0671 17.104C77.5685 17.6053 77.9551 18.2107 78.2271 18.92C78.5045 19.624 78.6431 20.4027 78.6431 21.256ZM76.8991 21.256C76.8991 20.5733 76.8058 19.9627 76.6191 19.424C76.4325 18.88 76.1658 18.4213 75.8191 18.048C75.4778 17.6693 75.0618 17.3813 74.5711 17.184C74.0858 16.9867 73.5418 16.888 72.9391 16.888H70.3311V25.624H72.9391C73.5418 25.624 74.0858 25.5253 74.5711 25.328C75.0618 25.1307 75.4778 24.8453 75.8191 24.472C76.1658 24.0933 76.4325 23.6347 76.6191 23.096C76.8058 22.5573 76.8991 21.944 76.8991 21.256ZM82.503 27H80.791V15.512H82.503V27ZM94.7459 15.512V27H93.8819C93.7485 27 93.6365 26.976 93.5459 26.928C93.4605 26.88 93.3725 26.8027 93.2819 26.696L86.7939 18.304C86.8045 18.448 86.8125 18.5893 86.8179 18.728C86.8285 18.8667 86.8339 18.9973 86.8339 19.12V27H85.3379V15.512H86.2179C86.3672 15.512 86.4792 15.5307 86.5539 15.568C86.6285 15.6 86.7112 15.6773 86.8019 15.8L93.3059 24.2C93.2899 24.0453 93.2765 23.896 93.2659 23.752C93.2605 23.6027 93.2579 23.464 93.2579 23.336V15.512H94.7459ZM106.964 21.408V25.888C106.383 26.304 105.764 26.616 105.108 26.824C104.452 27.0267 103.737 27.128 102.964 27.128C102.036 27.128 101.196 26.984 100.444 26.696C99.6972 26.408 99.0599 26.0053 98.5319 25.488C98.0039 24.9707 97.5959 24.352 97.3079 23.632C97.0252 22.912 96.8839 22.12 96.8839 21.256C96.8839 20.3867 97.0199 19.592 97.2919 18.872C97.5692 18.1467 97.9639 17.528 98.4759 17.016C98.9879 16.4987 99.6065 16.0987 100.332 15.816C101.063 15.528 101.881 15.384 102.788 15.384C103.247 15.384 103.671 15.4187 104.06 15.488C104.455 15.5573 104.82 15.656 105.156 15.784C105.492 15.912 105.801 16.0667 106.084 16.248C106.372 16.424 106.639 16.624 106.884 16.848L106.396 17.616C106.321 17.7387 106.223 17.816 106.1 17.848C105.977 17.88 105.844 17.8507 105.7 17.76C105.561 17.68 105.407 17.5867 105.236 17.48C105.071 17.3733 104.871 17.2747 104.636 17.184C104.407 17.0933 104.137 17.016 103.828 16.952C103.519 16.888 103.153 16.856 102.732 16.856C102.103 16.856 101.535 16.96 101.028 17.168C100.521 17.3707 100.089 17.664 99.7319 18.048C99.3745 18.432 99.0999 18.896 98.9079 19.44C98.7159 19.9787 98.6199 20.584 98.6199 21.256C98.6199 21.96 98.7212 22.592 98.9239 23.152C99.1265 23.7067 99.4119 24.1787 99.7799 24.568C100.153 24.952 100.604 25.2453 101.132 25.448C101.665 25.6507 102.26 25.752 102.916 25.752C103.172 25.752 103.409 25.7387 103.628 25.712C103.852 25.68 104.065 25.6373 104.268 25.584C104.471 25.5307 104.665 25.464 104.852 25.384C105.044 25.304 105.233 25.216 105.42 25.12V22.712H103.724C103.617 22.712 103.529 22.68 103.46 22.616C103.396 22.552 103.364 22.472 103.364 22.376V21.408H106.964ZM115.204 17.384C115.15 17.4747 115.094 17.5413 115.036 17.584C114.977 17.6267 114.902 17.648 114.812 17.648C114.716 17.648 114.606 17.6053 114.484 17.52C114.361 17.4293 114.206 17.3307 114.02 17.224C113.838 17.112 113.62 17.0133 113.364 16.928C113.108 16.8373 112.801 16.792 112.444 16.792C112.108 16.792 111.812 16.8373 111.556 16.928C111.305 17.0133 111.094 17.1333 110.924 17.288C110.753 17.4373 110.622 17.616 110.532 17.824C110.446 18.0267 110.404 18.248 110.404 18.488C110.404 18.7973 110.481 19.0533 110.636 19.256C110.796 19.4587 111.004 19.632 111.26 19.776C111.516 19.92 111.806 20.0453 112.132 20.152C112.457 20.2587 112.79 20.3707 113.132 20.488C113.473 20.6 113.806 20.7307 114.132 20.88C114.457 21.0293 114.748 21.2187 115.004 21.448C115.26 21.672 115.465 21.9493 115.62 22.28C115.78 22.6053 115.86 23.0053 115.86 23.48C115.86 23.9867 115.772 24.4613 115.596 24.904C115.425 25.3467 115.174 25.7333 114.844 26.064C114.513 26.3947 114.105 26.656 113.62 26.848C113.14 27.0347 112.593 27.128 111.98 27.128C111.612 27.128 111.254 27.0907 110.908 27.016C110.561 26.9467 110.233 26.848 109.924 26.72C109.614 26.5867 109.324 26.4293 109.052 26.248C108.785 26.0613 108.545 25.8533 108.332 25.624L108.82 24.808C108.868 24.744 108.924 24.6907 108.988 24.648C109.057 24.6053 109.134 24.584 109.22 24.584C109.332 24.584 109.46 24.6427 109.604 24.76C109.753 24.8773 109.934 25.008 110.148 25.152C110.366 25.2907 110.625 25.4187 110.924 25.536C111.228 25.6533 111.596 25.712 112.028 25.712C112.38 25.712 112.694 25.6667 112.972 25.576C113.249 25.48 113.481 25.3467 113.668 25.176C113.86 25 114.006 24.7893 114.108 24.544C114.209 24.2987 114.26 24.0267 114.26 23.728C114.26 23.392 114.182 23.1173 114.028 22.904C113.873 22.6907 113.668 22.512 113.412 22.368C113.156 22.224 112.865 22.1013 112.54 22C112.214 21.8987 111.881 21.7947 111.54 21.688C111.198 21.576 110.865 21.448 110.54 21.304C110.214 21.16 109.924 20.9733 109.668 20.744C109.412 20.5093 109.206 20.2187 109.052 19.872C108.897 19.52 108.82 19.088 108.82 18.576C108.82 18.1653 108.9 17.768 109.06 17.384C109.22 17 109.452 16.6613 109.756 16.368C110.065 16.0693 110.444 15.832 110.892 15.656C111.34 15.4747 111.852 15.384 112.428 15.384C113.073 15.384 113.665 15.488 114.204 15.696C114.748 15.8987 115.22 16.192 115.62 16.576L115.204 17.384Z" fill="white"/>
</svg>
