<svg width="32" height="32" viewBox="0 0 32 32" fill="none" xmlns="http://www.w3.org/2000/svg">
<path d="M21.8137 18.6666C21.9203 17.7866 22.0003 16.9066 22.0003 16C22.0003 15.0933 21.9203 14.2133 21.8137 13.3333H26.3203C26.5337 14.1866 26.667 15.08 26.667 16C26.667 16.92 26.5337 17.8133 26.3203 18.6666M19.4537 26.08C20.2537 24.6 20.867 23 21.2937 21.3333H25.227C23.9352 23.5577 21.8858 25.2426 19.4537 26.08ZM19.1203 18.6666H12.8803C12.747 17.7866 12.667 16.9066 12.667 16C12.667 15.0933 12.747 14.2 12.8803 13.3333H19.1203C19.2403 14.2 19.3337 15.0933 19.3337 16C19.3337 16.9066 19.2403 17.7866 19.1203 18.6666ZM16.0003 26.6133C14.8937 25.0133 14.0003 23.24 13.4537 21.3333H18.547C18.0003 23.24 17.107 25.0133 16.0003 26.6133ZM10.667 10.6666H6.77366C8.05213 8.43624 10.1001 6.74861 12.5337 5.91996C11.7337 7.39996 11.1337 8.99996 10.667 10.6666ZM6.77366 21.3333H10.667C11.1337 23 11.7337 24.6 12.5337 26.08C10.1052 25.2422 8.06012 23.5569 6.77366 21.3333ZM5.68033 18.6666C5.46699 17.8133 5.33366 16.92 5.33366 16C5.33366 15.08 5.46699 14.1866 5.68033 13.3333H10.187C10.0803 14.2133 10.0003 15.0933 10.0003 16C10.0003 16.9066 10.0803 17.7866 10.187 18.6666M16.0003 5.37329C17.107 6.97329 18.0003 8.75996 18.547 10.6666H13.4537C14.0003 8.75996 14.8937 6.97329 16.0003 5.37329ZM25.227 10.6666H21.2937C20.8764 9.01524 20.2584 7.42115 19.4537 5.91996C21.907 6.75996 23.947 8.45329 25.227 10.6666ZM16.0003 2.66663C8.62699 2.66663 2.66699 8.66663 2.66699 16C2.66699 19.5362 4.07175 22.9276 6.57223 25.428C7.81035 26.6662 9.2802 27.6483 10.8979 28.3184C12.5156 28.9884 14.2494 29.3333 16.0003 29.3333C19.5365 29.3333 22.9279 27.9285 25.4284 25.428C27.9289 22.9276 29.3337 19.5362 29.3337 16C29.3337 14.249 28.9888 12.5152 28.3187 10.8975C27.6487 9.27984 26.6665 7.80998 25.4284 6.57187C24.1903 5.33375 22.7204 4.35163 21.1028 3.68157C19.4851 3.0115 17.7513 2.66663 16.0003 2.66663Z" fill="url(#paint0_linear_120_195)"/>
<defs>
<linearGradient id="paint0_linear_120_195" x1="16.0003" y1="2.66663" x2="16.0003" y2="29.3333" gradientUnits="userSpaceOnUse">
<stop stop-color="#FFD584"/>
<stop offset="1" stop-color="#866000"/>
</linearGradient>
</defs>
</svg>
