<?xml version="1.0" standalone="no"?>
<!DOCTYPE svg PUBLIC "-//W3C//DTD SVG 20010904//EN"
 "http://www.w3.org/TR/2001/REC-SVG-20010904/DTD/svg10.dtd">
<svg version="1.0" xmlns="http://www.w3.org/2000/svg"
 width="1024.000000pt" height="1024.000000pt" viewBox="0 0 1024.000000 1024.000000"
 preserveAspectRatio="xMidYMid meet">
<metadata>
Created by potrace 1.14, written by Peter Selinger 2001-2017
</metadata>
<g transform="translate(0.000000,1024.000000) scale(0.100000,-0.100000)"
fill="#000000" stroke="none">
<path d="M1930 6862 l0 -2269 323 -6 c177 -4 420 -7 540 -7 l217 0 0 837 0
836 183 -6 c191 -7 289 -22 354 -56 58 -29 99 -81 112 -141 7 -34 11 -282 11
-760 l0 -710 541 0 540 0 -4 758 c-4 841 -3 820 -73 968 -78 165 -265 269
-596 334 -64 13 -92 30 -49 30 10 0 72 13 137 30 342 86 495 250 561 600 15
82 18 155 18 525 0 369 -3 446 -18 540 -77 461 -314 659 -877 730 -162 21
-677 34 -1372 34 l-548 1 0 -2268z m1558 1464 c75 -24 135 -86 159 -163 16
-52 18 -102 18 -473 0 -371 -2 -421 -18 -473 -24 -78 -82 -136 -157 -160 -66
-21 -223 -36 -372 -37 l-108 0 0 666 0 666 213 -4 c164 -4 224 -9 265 -22z"/>
<path d="M5450 5200 l0 -2060 200 0 200 0 0 950 0 950 1005 0 1005 0 2 -947 3
-948 203 -3 202 -2 0 2060 0 2060 -205 0 -205 0 0 -895 0 -895 -1002 2 -1003
3 -3 893 -2 892 -200 0 -200 0 0 -2060z"/>
<path d="M1025 6058 c-515 -824 -611 -1556 -290 -2213 173 -353 487 -698 901
-992 951 -674 2503 -1194 4471 -1497 456 -71 1088 -144 1553 -180 686 -54
1502 -79 1912 -57 l118 6 -694 720 -694 720 -64 7 c-34 3 -457 11 -938 17
-1285 15 -1773 27 -2255 51 -1764 91 -2871 338 -3555 795 -394 263 -622 582
-711 994 -30 138 -37 414 -15 580 43 322 162 696 338 1057 51 104 53 112 36
123 -10 6 -19 11 -21 11 -1 0 -43 -64 -92 -142z"/>
</g>
</svg>
