<?xml version="1.0" encoding="UTF-8"?><svg id="Layer_2" xmlns="http://www.w3.org/2000/svg" xmlns:xlink="http://www.w3.org/1999/xlink" viewBox="0 0 2570.71 2482.35"><defs><style>.cls-1{fill:url(#linear-gradient);}.cls-2{fill:url(#linear-gradient-8);}.cls-3{fill:url(#linear-gradient-3);}.cls-4{fill:url(#linear-gradient-4);}.cls-5{fill:url(#linear-gradient-2);}.cls-6{fill:url(#linear-gradient-6);}.cls-7{fill:url(#linear-gradient-7);}.cls-8{fill:url(#linear-gradient-5);}</style><linearGradient id="linear-gradient" x1="1329.54" y1="-203.37" x2="1329.54" y2="2621.14" gradientUnits="userSpaceOnUse"><stop offset="0" stop-color="#93630f"/><stop offset="1" stop-color="#fef7a2"/></linearGradient><linearGradient id="linear-gradient-2" x1="1337.26" y1="-72.63" x2="1337.26" y2="2736.69" xlink:href="#linear-gradient"/><linearGradient id="linear-gradient-3" x1="1769.69" y1="-202.64" x2="1769.69" y2="2739.51" xlink:href="#linear-gradient"/><linearGradient id="linear-gradient-4" x1="2121.44" y1="-202.64" x2="2121.44" y2="2739.51" xlink:href="#linear-gradient"/><linearGradient id="linear-gradient-5" x1="685.78" y1="-202.64" x2="685.78" y2="2739.51" xlink:href="#linear-gradient"/><linearGradient id="linear-gradient-6" x1="664.21" y1="-202.64" x2="664.21" y2="2739.51" xlink:href="#linear-gradient"/><linearGradient id="linear-gradient-7" x1="1216.4" y1="-202.64" x2="1216.4" y2="2739.51" xlink:href="#linear-gradient"/><linearGradient id="linear-gradient-8" x1="1341.9" y1="-202.64" x2="1341.9" y2="2739.51" xlink:href="#linear-gradient"/></defs><g id="Layer_1-2"><g><path class="cls-1" d="m101.71,1264.09c20.37-12.31,40.44-22.68,60.38-31.23,3.58-506.72,333.67-951.42,812.61-1104.1-86.11,60.73-163.92,143.24-231.88,246.02-56.45,85.38-103.87,182.19-141.28,288.19,26.91-3.66,54.1-5.54,81.48-5.58,108.92-285.62,293.67-488.22,503.31-551.39-72.23,105.59-130.82,299.69-167.25,554.31,16.05-10.94,32.12-20.45,47.42-29.02,11.7-6.56,23.09-12.37,34.26-17.56,59.98-363,159.03-529.05,228.79-529.05,85,0,195.12,227.06,247.74,661.73,26.7,8.34,63.85,32.31,78.8,43.52-33.33-315.58-99.05-560.6-183.35-683.96,222.9,66.9,414.3,287.25,520.47,598.83,2.43-.3,4.84-.58,7.22-.81,19.91-1.97,43.43-3.04,69.9-3.19-39.09-120.81-90.8-230.36-154.06-326.01-67.97-102.78-145.77-185.29-231.88-246.02,481.56,153.52,812.69,602.25,812.69,1112.42,0,9.45-.13,18.93-.36,28.43,23.73,27.75,47.98,62.21,66.98,102.88,4.63-43.7,7.02-87.64,7.02-131.31C2570.71,556.79,2013.92,0,1329.54,0S88.36,556.79,88.36,1241.17c0,10.18.16,20.61.44,31.16,4.25-2.84,8.54-5.61,12.91-8.25Z"/><path class="cls-5" d="m2264.3,1939.65c-146.32,195.5-348.77,340.05-579.86,413.88,86.07-60.72,163.86-143.21,231.82-245.97,49.2-74.4,91.6-157.51,126.42-247.56-13.22-11.91-24.86-24.46-35.07-37.16-14.7,16.95-31.05,32.14-48.8,45.37-110.49,263.21-286.04,448.02-486.02,508.13,61.93-90.28,113.38-243.74,150.11-447.8-24.03,6-50.11,10.08-77.32,11.01-61.09,315.99-151.35,458.09-216.03,458.09s-158.17-147.2-219.19-474.65c-7.18,1.32-14.57,2.45-22.2,3.41-10.88,1.37-22.01,2.06-33.1,2.06-3.06,0-6.14-.05-9.2-.16-3.25-.11-6.51-.29-9.79-.53,36.73,204.43,88.24,358.16,150.24,448.56-217.32-65.39-406.27-278.7-513.68-579.71-14.82,13.56-30.46,26.6-47.06,39.2-4.73,3.59-9.52,6.98-14.35,10.22,35.84,95.68,80.02,183.47,131.61,261.5,67.96,102.76,145.73,185.25,231.8,245.96-232.25-74.25-435.97-220.17-582.49-417.47-28.63,5.72-56.72,8.83-84.16,9.3,232.68,337.05,611.4,536.98,1021.58,536.98,218.38,0,433.27-57.79,621.45-167.11,166.79-96.89,309.52-232.06,415.58-392.95-30.54,9.59-65.41,16.38-102.26,17.36Z"/><g><g><path class="cls-3" d="m1860.73,1666.82c.74.16,2.89.55,6.7.68,50.77,3.14,75.15-50.35,74.71-85.05-.45-34.69-15.69-77-66.83-102.45-22.01-10.95-45.67-16.93-70.33-17.78-29.29-1.01-59.09,5.36-86.17,18.4-89.76,43.25-135.94,138.07-117.64,241.57.47,2.7,1.2,5.22,1.81,7.84,26.38-19.81,43.72-46.85,55.12-75,.93-9.6,2.63-19.75,5.4-30.56,22.98-89.59,90.8-127.72,147.82-125.76,40.23,1.38,71.26,23.1,79.04,55.32l2.77,11.47-11.66,1.77c-16.74,2.55-31.36,9.59-41.3,19.52-.9,20.13-3.11,39.75-6.63,58.75,6.05,11.44,14.87,18.61,27.19,21.28Z"/><path class="cls-4" d="m2521,1477.68c-26.85-144.31-154.39-228.76-154.39-228.76,28.6-38.64,85.43-117.12,78.35-201.23-7.09-84.11-65.54-161.26-110.46-197.94-44.93-36.68-157.13-67.83-157.13-67.83,0,0,5.22-67.98,35.88-81.69,3.2,20.26,22.14,27.17,46.04,12.96,23.9-14.21,7.3-36.57.41-41.52-10.43-7.49-24.76-9.29-40.33-5.06-15.45,4.19-30.52,13.78-43.57,27.74-29.11,31.15-41.22,80.92-41.46,81.42,0,0-71.77-3.98-126.66,1.46-54.89,5.44-125.25,32.93-159.56,75.2-35.32,43.5-32.85,96.6,6.28,135.28,21.31,21.06,58.37,34.97,96.71,36.28,11.54.4,22.53-.37,32.64-2.29,14.11-2.67,28.57-8.56,39.03-13.5,9.9-4.67,18.02-12.36,23.19-22,.11-.22.23-.43.35-.65,13.17-24.67,3.96-55.76-20.97-68.44-5.69-2.9-10.84-4.88-14.41-5-6.14-.21-12.41,1.33-19.16,4.72-25.03,12.56-30.04,43.08-22.07,66.73l3.82,11.32-11.63,2.69c-5.76,1.33-11.69,1.9-17.64,1.7h-.01c-20.39-.71-40.5-10.68-53.79-26.67-12.77-15.38-18.18-34.58-15.23-54.08,3.25-21.48,26-93.5,116.92-107.86,90.92-14.36,130.9-4.9,130.9-4.9l-65.91,312.26s-97.1-8.61-157.16,17.22c-60.06,25.83-75.9,76.39-76.47,100.28-.55,23.14,9.09,45.86,27.15,63.99,21.32,21.4,49.79,31.42,77.38,39.07,9.44,2.62,46.98,9.94,65.51,13.44l13.65,2.54s-35.17,161.59-46.05,209.2c-10.88,47.61-23.28,154.38-102.93,222.81-20.6,14.87-45.72,22.24-72.62,21.31-9.02-.31-17.91-1.68-26.59-3.8-13.61,15.23-28.93,28.62-45.48,40.45,18.64,6.19,37.84,9.63,56.21,10.26,10.29.35,20.59-.11,30.62-1.36,30.76-3.86,55.71-10.78,80.67-23.32,43.23-21.7,78.11-56.91,101.47-99.27,18.17-32.95,28.74-62.51,28.74-62.51,0,0,22.17,110.29,121.13,166.15,111.82,63.11,231.36,17.15,273.62-10.02,49.34-31.73,85.96-80.87,105.88-142.09,19.66-60.39,22.81-131.15,9.14-204.65Zm-352-664.61s97.77,26.68,141,61.91c43.23,35.24,76.02,95.25,73.97,188.53-2.06,93.28-73.21,142.9-73.21,142.9l-9.29-6.76c-.79-.57-79.53-57.13-187.74-79.04l55.28-307.54Zm-62,344.92c35.52,10.77,139.63,44.74,162.06,79.03-59.99,52.34-161,68.73-189.28,72.41l27.22-151.44Zm-109.37,149.98c-1.27-.23-31.26-5.77-46.53-9.77-40.62-10.65-86.78-39.9-83.18-87.29l.03-.39.06-.38c7.61-51.17,57.59-60.27,87.46-65.71,43.92-5.77,96.37-1.39,96.37-1.39l-35.64,168.83-18.57-3.91Zm295.24,475.52c-13.26,4.47-27.15,6.5-41.27,6.01-57.48-1.98-115.74-46.53-141.69-108.35-24.99-59.55-15.07-120.19,27.24-166.38,15.85-17.3,37.92-26.78,60.55-26,.8.03,1.6.07,2.4.12l.71.05.69.14c12.75,2.54,42.59,8.49,40.24,32.88l-.4,4.19-3.13,2.82c-13.74,12.35-15.64,24.04-6.54,40.33,4.31,7.71,12.46,12.5,21.81,12.83,9.46.32,18.14-3.93,23.22-11.4,6.04-8.88,7.49-20.34,4.29-34.05-5.56-23.9-23.8-47.09-37.5-54.87-18.87-10.7-39.4-16.51-61.04-17.25-7.69-.26-15.53.1-23.54,1.08-47.04,5.78-88.9,32.71-115.66,71.82l-6,8.78,34.39-191.32,18.21-3.31c.52-.04,52.47-4.62,106.91-20.57,43.31-12.68,82.15-29.6,115.42-50.29l6.95-4.32,6.05,5.51c92.47,84.22,106.71,196.28,108.54,240.55,1.46,35.16,1.49,212.97-140.83,261Z"/></g><path class="cls-8" d="m300.68,1871.87c-34.65,0-67.45-4.99-100.28-15.27-53.74-16.82-99.78-48.45-136.81-93.99-13.83-17-26.13-38.68-36.57-64.43-10.82-26.7-18.53-53.4-22.93-79.37-10.42-61.6-.84-120.86,28.49-176.15,25.92-48.87,63-88.84,107.22-115.57,47.02-28.42,91.33-44.55,135.48-49.29,14.1-1.51,27.67-2.28,40.33-2.28,60.58,0,109.63,17.5,149.99,53.52,30.59,27.3,50.02,58.76,59.4,96.18,8.28,33.01,15.17,68.74,9.57,106.29-8.54,57.19-33.65,105.72-74.62,144.23-32.68,30.71-73.08,48.3-120.08,52.29-5.81.49-11.64.74-17.32.74-88.33,0-149.03-57.84-154.64-147.34-2.34-37.34,18.05-83.32,61.53-98.97l16.73-6.02-7.81,15.98c-29.49,60.36-23.02,105.86-12.41,133.41,11.92,30.93,36,56.18,64.41,67.55,7.27,2.91,15.36,4.39,24.04,4.39h.54c58.69-.43,106.61-32.53,134.94-90.39,19.75-40.35,23.97-82.68,13.29-133.21-7.6-35.97-17.1-73.6-41.96-103.71-16.49-19.97-37.08-36.01-62.94-49.04-18.78-9.45-37.99-14.05-58.72-14.05s-44.65,5.09-70.58,15.55c-43.06,17.37-78.87,48.21-106.46,91.64-26.23,41.3-40.45,85.65-43.46,135.59-2.35,39.05,2.61,78.04,14.76,115.89,25.15,78.36,71.61,132.33,138.09,160.4,9.24,3.9,35.13,12.97,75.92,12.97,36.71,0,74.77-7.21,113.11-21.43,30.23-12.59,62.47-30.78,95.54-53.96,50.76-35.58,94.71-82.73,134.37-144.13,6.84-10.6,13.19-21.9,19.32-32.83,4.99-8.88,10.14-18.06,15.6-26.94,30.17-49.1,55.92-106.31,78.71-174.87,3.74-11.25,7.59-22.49,11.44-33.73,13.38-39.02,27.21-79.38,35.9-119.89,15.15-70.57,36.85-141.97,64.49-212.21,16.88-42.89,37.41-85.03,57.26-125.77,7.9-16.2,16.05-32.95,23.86-49.49,1.6-3.39,3.11-7.14,4.29-10.25-2.53-.81-5.79-1.77-9.7-2.74-15.93-3.97-32.06-8.21-47.65-12.3-26.45-6.95-53.8-14.13-80.85-20.21-21.97-4.93-44.74-8.54-66.75-12.03-9.85-1.56-19.71-3.12-29.53-4.8-10.03-1.71-37.18-5.7-72.47-5.7-70.68,0-169.31,15.62-237.77,90.04-23.72,28.52-40.58,62.02-51.31,102.14-14.61,54.63-12.83,107.09,5.31,155.9,18.09,48.7,53.54,75.72,102.49,78.13,3.2.16,6.4.24,9.54.24,61.86,0,111.98-30.26,157.72-95.24,13.88-19.7,27.61-41.69,29.87-74.5l.93-13.46,10.68,8.25c28.26,21.81,20.84,52.1,16.41,70.19-10.3,42.06-34.99,75-75.49,100.7-36.04,22.88-76.64,34.98-120.65,35.96-2.25.05-4.49.08-6.72.08-76.98,0-135.67-29.8-174.45-88.59-22.87-34.68-33.31-76.67-31.9-128.39,1.69-61.94,28.87-118.28,83.12-172.22,33.14-32.95,70.38-58.35,110.67-75.5,64.37-25.8,131.85-38.85,200.71-38.85,42.97,0,75.82,5.24,91.61,7.76l3.29.52c44.88,7.04,90.12,16.17,133.88,25,9.62,1.94,19.24,3.88,28.87,5.8,13.17,2.63,41.06,10.1,52.64,13.25.49-.72,1.02-1.47,1.57-2.21,29.29-39.18,70.37-65.25,106.7-85.59,43.15-24.16,80.07-36.63,116.19-39.23,9.28-.67,21.5-1.44,33.72-1.44,34.48,0,61.13,6.34,83.85,19.94,12.29,7.35,22.04,18.72,27.46,32.01,19.8,48.5,2.34,91.21-51.89,126.97-29.38,19.37-60.49,30.24-92.47,32.33-11.97.78-24.26,1.18-36.52,1.18-21.31,0-43.05-1.19-64.61-3.53-28.06-3.05-56.19-8.42-83.4-13.61-10.47-2-20.94-4-31.43-5.87-1.43-.26-3.02-.58-4.5-.89-2.3,4.66-5.16,10.54-6.19,12.97-4.53,10.76-9.1,21.51-13.68,32.26-20.05,47.09-40.78,95.78-57.25,144.85-12.71,37.84-21.72,77.83-30.43,116.49-2.99,13.26-6.08,26.97-9.28,40.42,0,.02,0,.04-.01.06,1.3-.06,2.33-.1,2.71-.11,40.65-.84,68.28-15.84,84.44-45.87,9.68-17.98,19.25-31.9,29.25-42.54,7.34-7.8,16.01-12.1,24.42-12.1,6.14,0,11.93,2.17,17.22,6.44,5.86,4.73,9.23,12.28,9.51,21.26.34,10.91-4.05,21.92-11.47,28.72-5.78,5.31-11.88,10.37-17.78,15.26-17.35,14.41-66.76,74.93-92.14,152.71-6.18-7.16-9.76-43.28,2-91.29-17.74,1.27-42.87,3.01-53.62,3.75-.39,1.56-.82,3.25-1.17,4.69-3.51,14.41-6.66,29.25-9.69,43.6-5.5,25.96-11.18,52.8-19.35,78.57-16.1,50.8-35.41,109.63-60.98,165.08-25.42,55.12-61.18,104.45-95.63,150.24-30.52,40.58-66.08,76.04-108.71,108.4-22.64,17.19-48.81,29.93-74.11,42.26l-8.91,4.35c-69.57,31.9-135.91,48.04-197.35,48.04Zm739.66-1077.19c10.35,2.05,20.72,4.59,30.75,7.04,16.55,4.05,33.66,8.23,50.51,10.15,21.42,2.43,42.7,3.73,68.06,4.93,2.97.14,5.94.21,8.9.21,33.2,0,65.05-8.75,92.09-25.29,5.8-3.54,10.75-7.05,15.15-10.73,15.56-13.01,22.92-30.27,20.19-47.34-2.58-16.09-13.91-29.6-30.32-36.13-14.83-5.91-33.69-8.9-56.05-8.9-5.22,0-10.75.16-16.44.48-42.56,2.4-80.62,22.11-112.24,41.07-26.7,16.01-49.97,36.35-71.13,62.19-.5.61-1.03,1.25-1.57,1.91.76.15,1.48.3,2.12.42Z"/><path class="cls-6" d="m449.19,1746.42c.44-.53,2.14-2.42,4.84-5.41,52.62-58.24,86.71-100.75,101.31-126.37,12.36-21.68,23.73-44.15,33.22-63.28,3.43-6.9,6.98-13.76,10.54-20.61,7.99-15.39,16.24-31.31,22.73-47.44,18.44-45.85,35.29-91.66,53.84-142.5,7.13-19.53,13.55-39.02,20.36-59.66,2.05-6.21,4.11-12.47,6.21-18.78-23.77,2.84-44.4,13.4-64.26,32.75-21.01,20.48-26.96,44.42-17.69,71.17l3.5,10.1-10.61-1.24c-18.26-2.14-32.32-11.6-39.59-26.64-7.73-15.99-6.36-35.92,3.59-52,15.39-24.9,61.32-67.94,136.9-73.96,7.47-18.45,39.62-97.91,53.75-134.81,14.02-36.62,33.88-73.11,60.7-111.56l.94-1.35c4.78-6.95,13.67-19.89,32.21-31.73l17.57-11.22-7.75,19.36c-1.97,4.92-3.99,9.83-6,14.74-4.3,10.46-8.73,21.28-12.62,32.02-4.29,11.89-8.63,23.76-12.97,35.63-13.65,37.32-27.76,75.9-40.03,114.3-6.45,20.16-11.51,41.27-16.4,61.68-3.78,15.75-7.68,32.03-12.22,47.91-10.9,38.15-23.26,81.39-38.49,122.98-15.08,41.2-31.97,85.1-53.28,127.01-20.58,40.48-44.72,80.34-71.74,118.46l-.26.34c-67.5,83.34-158.29,120.13-158.29,120.13Z"/><g><path class="cls-7" d="m1229.73,1023.99c11.54.4,22.53-.37,32.64-2.29,14.11-2.67,28.57-8.56,39.03-13.5,9.9-4.67,18.02-12.36,23.18-22,.12-.22.23-.43.35-.65,13.17-24.67,3.96-55.76-20.97-68.44-5.7-2.9-10.84-4.88-14.41-5-6.15-.21-12.41,1.33-19.16,4.72-25.03,12.56-30.05,43.08-22.07,66.73l3.81,11.32-11.63,2.69c-5.76,1.33-11.69,1.9-17.64,1.7h-.01c-20.39-.71-40.5-10.68-53.79-26.67-12.77-15.38-18.18-34.58-15.23-54.08.67-4.41,2.23-11.02,4.96-18.75-14.71-.57-29.48-1.46-44.2-3.06-3.34-.36-6.64-.85-9.97-1.27-8.06,32.38,1.52,65.74,28.38,92.29,21.31,21.06,58.37,34.97,96.71,36.28Z"/><path class="cls-2" d="m1806.69,1531.81c-33.19.16-75.59,19.06-99.57,69.19-11.06,65.95-43.5,151.4-135.63,182.49-13.26,4.47-27.15,6.5-41.27,6.01-57.48-1.98-115.74-46.53-141.69-108.35-25-59.55-15.07-120.19,27.24-166.38,15.85-17.3,37.91-26.78,60.55-26,.8.03,1.6.07,2.4.12l.71.05.69.14c12.75,2.54,42.59,8.49,40.24,32.88l-.4,4.19-3.13,2.82c-13.73,12.35-15.63,24.04-6.54,40.33,4.3,7.71,12.46,12.5,21.81,12.83,9.46.32,18.13-3.93,23.21-11.4,6.04-8.88,7.49-20.34,4.3-34.05-5.57-23.9-23.8-47.09-37.5-54.87-18.87-10.7-39.41-16.51-61.04-17.25-7.69-.26-15.54.1-23.54,1.08-47.04,5.78-88.9,32.71-115.66,71.82l-6,8.78,34.39-191.32,18.21-3.31c.52-.04,52.47-4.62,106.91-20.57,43.31-12.68,82.14-29.6,115.42-50.29l6.95-4.32,6.05,5.51c58.89,53.63,85.99,118.49,98.42,170.01.76-.37,1.47-.8,2.23-1.16,25.73-12.41,53.8-19.71,81.89-21.41-41.79-114.65-141.08-180.45-141.08-180.45,28.59-38.64,85.43-117.12,78.35-201.23-7.09-84.11-65.54-161.26-110.46-197.94-44.93-36.68-157.13-67.83-157.13-67.83,0,0,5.21-67.98,35.87-81.69,3.2,20.26,22.15,27.17,46.04,12.96,23.9-14.21,7.3-36.57.41-41.52-10.43-7.49-24.76-9.29-40.33-5.06-15.46,4.19-30.52,13.78-43.57,27.74-13.73,14.69-23.68,33.53-30.38,49.38-4.48,10.59-12.35,18.94-21.96,24.3-2.45,11.59-6.87,23.63-14.06,35.8,9.16.87,13.65,1.9,13.65,1.9l-65.91,312.26s-97.09-8.61-157.15,17.22c-60.07,25.83-75.9,76.39-76.47,100.28-.56,23.14,9.09,45.86,27.15,63.99,21.32,21.4,49.79,31.42,77.38,39.07,9.44,2.62,46.98,9.94,65.51,13.44l13.65,2.54s-35.17,161.59-46.05,209.2c-10.88,47.61-23.28,154.38-102.93,222.81-20.6,14.87-45.72,22.24-72.62,21.31-39.92-1.37-77.92-21.13-101.67-52.86-18.31-24.45-36.71-66.94-20.41-130.5,22.98-89.59,90.8-127.72,147.82-125.76,40.23,1.38,71.25,23.1,79.04,55.32l2.77,11.47-11.66,1.77c-22.08,3.36-40.52,14.52-49.32,29.85-7.14,12.44-7.65,27.25-1.48,42.83,5.93,14.97,15.76,23.76,30.06,26.86.74.16,2.89.55,6.7.68,50.77,3.14,75.15-50.35,74.71-85.05-.45-34.69-15.69-77-66.83-102.45-22.01-10.95-45.67-16.93-70.33-17.78-29.29-1.01-59.09,5.36-86.17,18.4-89.76,43.25-135.94,138.07-117.64,241.57,15.49,87.63,98.23,130.14,168.55,132.55,10.29.35,20.59-.11,30.62-1.36,30.13-3.78,54.69-10.5,79.15-22.56,42.82-21.1,77.96-55.46,101.35-97.07,19.18-34.12,30.38-65.46,30.38-65.46,0,0,22.17,110.29,121.13,166.15,111.82,63.11,231.36,17.15,273.62-10.02,49.34-31.73,85.96-80.87,105.88-142.09,14.77-45.39,20.22-96.65,16.2-150.52Zm-359.07-718.73s97.78,26.68,141,61.91c43.23,35.24,76.02,95.25,73.96,188.53-2.05,93.28-73.2,142.9-73.2,142.9l-9.29-6.76c-.79-.57-79.53-57.13-187.74-79.04l55.27-307.54Zm-61.99,344.92c35.52,10.77,139.63,44.74,162.06,79.03-59.99,52.34-161,68.73-189.28,72.41l27.22-151.44Zm-109.37,149.98c-1.27-.23-31.26-5.77-46.53-9.77-40.62-10.65-86.78-39.9-83.18-87.29l.03-.39.06-.38c7.61-51.17,57.59-60.27,87.45-65.71,43.92-5.77,96.38-1.39,96.38-1.39l-35.64,168.83-18.57-3.91Z"/></g></g></g></g></svg>