<svg width="229" height="89" viewBox="0 0 229 89" fill="none" xmlns="http://www.w3.org/2000/svg">
<g opacity="0.73">
<rect x="75.1406" y="59.1821" width="26.2396" height="26.2396" rx="2.38542" fill="#28377D"/>
<rect x="139.547" y="59.1821" width="26.2396" height="26.2396" rx="2.38542" fill="#28377D"/>
<rect x="107.344" y="59.1821" width="26.2396" height="26.2396" rx="2.38542" fill="#28377D"/>
<rect opacity="0.3" x="171.75" y="59.1821" width="26.2396" height="26.2396" rx="2.38542" fill="#28377D"/>
<path d="M171.75 61.5675C171.75 60.2501 172.818 59.1821 174.135 59.1821H192.99V85.4217H174.135C172.818 85.4217 171.75 84.3537 171.75 83.0363V61.5675Z" fill="#28377D"/>
<rect opacity="0.3" x="203.261" y="59.6821" width="25.2396" height="25.2396" rx="1.88542" fill="#28377D" stroke="#28377D"/>
<path d="M88.2604 62.7603L90.4027 69.3534H97.3351L91.7266 73.4282L93.8689 80.0213L88.2604 75.9465L82.652 80.0213L84.7942 73.4282L79.1858 69.3534H86.1182L88.2604 62.7603Z" fill="white"/>
<path d="M152.667 62.7603L154.809 69.3534H161.741L156.133 73.4282L158.275 80.0213L152.667 75.9465L147.058 80.0213L149.2 73.4282L143.592 69.3534H150.524L152.667 62.7603Z" fill="white"/>
<path d="M120.464 62.7603L122.606 69.3534H129.538L123.93 73.4282L126.072 80.0213L120.464 75.9465L114.855 80.0213L116.997 73.4282L111.389 69.3534H118.321L120.464 62.7603Z" fill="white"/>
<path d="M184.87 62.7603L187.012 69.3534H193.944L188.336 73.4282L190.478 80.0213L184.87 75.9465L179.261 80.0213L181.404 73.4282L175.795 69.3534H182.728L184.87 62.7603Z" fill="white"/>
<path d="M215.881 62.7603L218.023 69.3534H224.956L219.347 73.4282L221.489 80.0213L215.881 75.9465L210.273 80.0213L212.415 73.4282L206.806 69.3534H213.739L215.881 62.7603Z" fill="white"/>
<path fill-rule="evenodd" clip-rule="evenodd" d="M228.557 15.744C228.557 15.488 228.378 15.1952 228.162 15.0852C227.66 14.7925 226.904 14.6101 225.36 14.6101C221.875 14.6101 218.821 16.3659 217.492 19.3294V15.744C217.492 15.4511 217.241 15.1952 216.918 15.1952H211.744C211.457 15.1952 211.206 15.4149 211.206 15.744V40.0365C211.206 40.3289 211.457 40.5849 211.78 40.5849L217.241 40.5854C217.528 40.5854 217.78 40.3289 217.78 40.0365V29.0979C217.78 24.2318 221.121 21.8171 225.395 21.8171C226.401 21.8171 227.407 21.9996 227.91 22.183C228.27 22.293 228.593 22.0363 228.593 21.6342V15.7073L228.557 15.744ZM193.781 14.5733C201.434 14.5733 207.146 19.9513 207.146 27.8898C207.146 35.7925 201.434 41.2068 193.818 41.2068C186.201 41.2068 180.525 35.8292 180.525 27.8898C180.49 19.9513 186.166 14.5733 193.781 14.5733V14.5733ZM193.781 34.6221C197.518 34.6221 200.392 31.9509 200.392 27.8898C200.392 23.8291 197.518 21.1222 193.781 21.1222C190.082 21.1222 187.207 23.8291 187.207 27.8898C187.244 31.9509 190.117 34.6221 193.781 34.6221ZM163.533 14.5733C171.186 14.5733 176.861 19.9513 176.861 27.8898C176.861 35.7925 171.15 41.2068 163.569 41.2068C155.918 41.2068 150.205 35.8292 150.205 27.8898C150.205 19.9513 155.881 14.5733 163.533 14.5733ZM163.533 34.6221C167.269 34.6221 170.143 31.9509 170.143 27.8898C170.143 23.8291 167.269 21.1222 163.569 21.1222C159.869 21.1222 156.995 23.8291 156.995 27.8898C156.959 31.9877 159.832 34.6585 163.533 34.6221V34.6221ZM145.607 5.06084C145.895 5.06084 146.146 5.28056 146.146 5.6097V40.0365C146.146 40.3289 145.93 40.5849 145.607 40.5849L140.145 40.5854C139.858 40.5854 139.607 40.3289 139.607 40.0365V37.0367C137.775 39.6706 134.972 41.2436 131.381 41.2436C125.237 41.2436 120.1 36.4879 120.1 27.8903C120.1 19.2932 125.237 14.5369 131.273 14.5369C135.152 14.5369 137.919 16.4027 139.607 18.8537V5.61021C139.607 5.31733 139.858 5.02458 140.182 5.02458L145.607 5.06084V5.06084ZM133.32 34.7315C136.984 34.7315 139.824 32.0976 139.824 27.9266C139.824 23.7197 136.984 21.1222 133.32 21.1222C129.62 21.1222 126.818 23.8291 126.818 27.9266C126.818 32.0609 129.62 34.7315 133.32 34.7315ZM116.508 32.9387C116.508 38.7196 112.412 41.2068 105.802 41.2068C101.275 41.2068 97.3238 39.9267 95.0967 37.3659C94.9166 37.1462 94.9166 36.8533 95.0967 36.6341L98.2215 32.4268C98.4373 32.1339 98.8322 32.1339 99.0479 32.39C100.7 34.1464 103.287 35.2073 106.449 35.2073C108.281 35.2073 109.789 34.6947 109.789 33.2679C109.789 31.8779 108.424 31.585 104.257 30.6708C100.593 29.9022 96.0301 28.1826 96.0301 22.6583C96.0301 17.4999 100.018 14.5733 106.484 14.5733C110.759 14.5733 113.813 15.8902 115.969 17.9757C116.184 18.1949 116.184 18.5241 116.005 18.7443L113.022 22.7319C112.843 22.9879 112.484 23.0243 112.233 22.8413C110.795 21.488 108.353 20.6826 105.945 20.6826C103.934 20.6826 102.784 21.3414 102.784 22.4391C102.784 23.7197 104.149 24.0121 108.532 24.9636C112.879 25.9146 116.508 27.5975 116.508 32.9387ZM91.3603 32.9387C91.3603 38.7196 87.2649 41.2068 80.6546 41.2068C76.0921 41.2068 72.177 39.9267 69.9132 37.3659C69.7693 37.1462 69.7693 36.8533 69.9132 36.6341L73.0747 32.463C73.2539 32.1707 73.6854 32.1707 73.9006 32.4268C75.5536 34.1826 78.14 35.2436 81.3014 35.2436C83.1335 35.2436 84.6424 34.7315 84.6424 33.3046C84.6424 31.9147 83.2775 31.6218 79.1099 30.7072C75.4457 29.939 70.8833 28.2193 70.8833 22.6946C70.8833 17.5363 74.8345 14.6101 81.3375 14.6101C85.612 14.6101 88.6665 15.927 90.8213 18.0125C91.0371 18.1949 91.0371 18.5608 90.8574 18.7801L87.8757 22.7319C87.6965 22.9879 87.3011 23.0243 87.0852 22.8413C85.6486 21.488 83.2052 20.6826 80.7985 20.6826C78.7864 20.6826 77.6371 21.3414 77.6371 22.4391C77.6371 23.7197 79.0021 24.0121 83.3854 24.9636C87.6965 25.9146 91.3242 27.5975 91.3603 32.9387V32.9387ZM54.4655 14.6463C61.6866 14.6463 65.3147 17.9026 65.3147 24.9636V40.1096C65.3147 40.4025 65.0632 40.6585 64.74 40.6585H59.2794C58.9923 40.6585 58.7409 40.4392 58.7409 40.1096V37.2192C57.4833 39.2685 55.0049 41.1705 51.1244 41.1705C46.2026 41.1705 42.7541 37.951 42.7541 33.2679C42.7541 28.6584 46.1313 25.7317 50.6938 25.2927L57.4833 24.6703C58.3811 24.5609 58.7409 24.268 58.7409 23.6467V23.244C58.7409 21.7803 57.3754 20.7194 54.4298 20.7194C52.0588 20.7194 49.5798 21.4144 48.5024 23.4637C48.3584 23.7561 47.9991 23.7928 47.7476 23.6099L43.7959 20.6826C43.5802 20.5364 43.5083 20.2074 43.6524 19.9877C45.3766 16.4391 49.2923 14.6831 54.4655 14.6831V14.6463ZM58.7409 30.3412V29.3171L52.6334 30.0857C50.6216 30.378 49.5798 31.4388 49.5798 32.8662C49.5798 34.5123 50.8368 35.5731 53.1 35.5731C56.549 35.5731 58.7765 33.1217 58.7409 30.3412V30.3412ZM38.299 5.6097V40.0365C38.299 40.3657 38.0477 40.6217 37.7606 40.6217H32.2637C31.9767 40.6217 31.6891 40.3657 31.6891 40.0365V5.6097C31.6891 5.31733 31.9406 5.06135 32.2281 5.06135L37.7245 5.06084C38.0477 5.06084 38.299 5.31733 38.299 5.6097ZM25.7256 15.1589C26.0127 15.1589 26.3007 15.4149 26.3007 15.744V38.902C26.3007 45.451 23.2467 51.3779 12.8285 51.3779C8.0508 51.3779 4.74536 49.9874 2.23078 47.7557C2.05113 47.6096 2.01499 47.2799 2.33866 46.7316L4.78149 42.4875C4.9255 42.1952 5.32043 42.1216 5.57185 42.3776C7.54748 44.1703 9.77502 45.1213 12.5771 45.1213C18.1097 45.1213 19.8339 42.2314 19.8339 38.5729V36.9632C18.217 39.341 15.451 40.8409 11.8947 40.8409C5.2843 40.8409 0.254639 36.2314 0.254639 27.7804C0.254639 19.2921 5.53571 14.5728 11.7145 14.5728C15.5228 14.5728 18.3971 16.4391 19.7982 18.7438V15.7803C19.7982 15.4875 20.0496 15.1952 20.3728 15.1952L25.7256 15.1589V15.1589ZM13.4754 34.6947C17.1753 34.6947 19.9056 32.0609 19.9056 27.8898C19.9056 23.6829 17.1753 21.0853 13.4754 21.0853C9.7389 21.0853 6.9729 23.7928 6.9729 27.8898C6.9729 31.9877 9.77452 34.6947 13.4754 34.6947" fill="#28377D"/>
<rect x="54.8638" y="55.604" width="1.19271" height="33.3958" fill="#28377D"/>
<path d="M9.4207 68.5196C9.4207 66.6542 10.2162 64.6516 13.9196 64.6516C16.4982 64.6516 17.5407 66.1604 17.5407 67.6966C17.5407 69.8912 16.0593 70.7964 14.1116 70.7964H12.1914V72.991H14.2213C16.0593 72.991 18.2265 73.5122 18.2265 76.4749C18.2265 78.7518 17.0469 79.9863 13.7824 79.9863C10.1888 79.9863 8.92691 78.1209 8.92691 75.3776H6.45801C6.45801 79.6571 9.14637 82.1809 13.9745 82.1809C18.0344 82.1809 20.6954 80.2057 20.6954 76.4749C20.6954 74.2529 19.7901 72.5247 17.1017 71.784V71.7291C19.022 70.961 20.0096 69.6992 20.0096 67.6966C20.0096 64.3499 17.1566 62.457 13.9196 62.457C9.22867 62.457 6.95179 65.0357 6.95179 68.5196H9.4207Z" fill="#28377D"/>
<path d="M24.2982 81.9888C25.1486 81.9888 25.807 81.4127 25.807 80.48C25.807 79.5748 25.1486 78.9713 24.2982 78.9713C23.4478 78.9713 22.7894 79.5748 22.7894 80.48C22.7894 81.4127 23.4478 81.9888 24.2982 81.9888Z" fill="#28377D"/>
<path d="M26.8211 62.8411V65.0357H37.218V65.0905C33.8438 68.1081 29.5644 75.4599 29.5644 81.7968H32.1704C32.1704 75.6794 35.6543 68.3824 39.9612 64.7613V62.8411H26.8211Z" fill="#28377D"/>
</g>
</svg>
