<?xml version="1.0" encoding="utf-8"?>
<!-- Generator: Adobe Illustrator 22.0.1, SVG Export Plug-In . SVG Version: 6.00 Build 0)  -->
<svg version="1.1" id="Layer_1" xmlns="http://www.w3.org/2000/svg" xmlns:xlink="http://www.w3.org/1999/xlink" x="0px" y="0px"
	 viewBox="0 0 1033.01 499.48" style="enable-background:new 0 0 1033.01 499.48;" xml:space="preserve">
<style type="text/css">
	.st0{fill:#88573A;}
	.st1{fill:#28377D;}
</style>
<g>
	<g>
		<path class="st0" d="M736.78,498.68c-264.68,10.6-914.31-82.36-690.77-410.9l3.26,2.07
			c-163.45,322.27,319.68,282.76,574.61,291.31L736.78,498.68z"/>
		<path class="st1" d="M69.28,0l46.83,0.17c40.67,0,52.09,8.18,52.09,38.26v15.79c0,24.32-9.83,29.86-25.82,32.51v0.45
			c16.9,3.53,25.82,6.42,25.82,26.09v47h-37.93v-49.21c0-6.63-3.88-9.52-16.68-9.52h-6.39v58.73l-37.92-0.34V0z M107.2,74.12h7.32
			c13.47,0,15.76-3.54,15.76-13.92V39.53c0-8.19-3.43-11.94-11.65-11.94H107.2V74.12z"/>
		<path class="st1" d="M186.71,81.54c0-30.29,15.54-35.82,44.54-35.82c37.01,0,44.55,13.49,44.55,31.18v34.94h-53.91v19.03
			c0,5.96,1.37,7.73,10.05,7.73c6.63,0,9.61-1.33,9.61-7.96v-5.32h34.26v6.42c0,23.66-10.28,30.29-44.55,30.29
			c-29.01,0-44.54-5.52-44.54-35.82V81.54z M221.89,91.05h18.73V74.47c0-4.64-1.6-6.63-9.37-6.63c-7.76,0-9.36,1.98-9.36,6.63V91.05
			z"/>
		<path class="st1" d="M287.97,47.49h33.81l10.28,93.33h0.45l10.29-93.33h33.81l-19.42,126.05c-3.66,24.1-17.82,28.3-37.71,28.3
			c-2.96,0,7.47,0.12-39.48,0.12v-23.57c42.55,0,29.9,0,33.78,0c2.96,0,7.09-0.43,10.05-3.75c2.5-2.87,2.05-9.29,3.2-14.38h-22.84
			L287.97,47.49z"/>
		<path class="st1" d="M387.26,81.54c0-30.29,15.54-35.82,44.56-35.82c37.01,0,44.55,13.49,44.55,31.18v34.94h-53.92v19.03
			c0,5.96,1.37,7.73,10.05,7.73c6.62,0,9.59-1.33,9.59-7.96v-5.32h34.27v6.42c0,23.66-10.28,30.29-44.55,30.29
			c-29.02,0-44.56-5.52-44.56-35.82V81.54z M422.45,91.05h18.73V74.47c0-4.64-1.6-6.63-9.36-6.63c-7.77,0-9.37,1.98-9.37,6.63V91.05
			z"/>
		<path class="st1" d="M493.49,125.32h31.07v3.1c0,8.4,1.82,10.17,8.01,10.17c6.16,0,8.67-1.77,7.99-10.17
			c-0.68-9.51-1.61-9.95-18.28-12.39c-23.75-3.31-29.47-10.82-29.47-32.73c0-32.94,8.69-36.92,39.76-37.59
			c29.46-0.66,39.05,6.19,39.05,22.34V81.1h-29.7v-5.31c0-5.08-2.29-7.95-7.54-7.95c-6.4,0-7.78,2.43-7.78,10.17
			c0,7.52,1.38,9.29,15.31,11.27c26.73,3.99,31.99,7.75,32.44,32.51c0.68,35.17-12.56,40.25-39.97,40.25
			c-30.15,0-40.9-5.09-40.9-26.76V125.32z"/>
		<path class="st1" d="M390.22,192.08h13.33v59.77h66.25v-59.77h13.52V329.9h-13.33v-63.58h-66.45v63.58h-13.33V192.08z"/>
		<path class="st1" d="M539.09,231.28c31.99,0,35.79,11.43,35.79,50.08c0,40.17-4.18,50.07-35.79,50.07
			c-31.6,0-35.78-9.9-35.78-50.07C503.31,242.71,507.12,231.28,539.09,231.28z M539.09,320.39c19.42,0,22.47-2.86,22.47-39.03
			c0-36.18-3.05-39.03-22.47-39.03c-19.41,0-22.46,2.85-22.46,39.03C516.63,317.54,519.67,320.39,539.09,320.39z"/>
		<path class="st1" d="M596.58,192.08h12.19V329.9h-12.19V192.08z"/>
		<path class="st1" d="M690.24,317.72h-0.38c-4.58,9.71-11.23,13.71-24.95,13.71c-27.03,0-34.45-11.99-34.45-50.07
			c0-38.08,7.43-50.08,32.55-50.08c11.04,0,20.19,2.29,26.85,13.72h0.38v-52.92h12.19V329.9h-12.19V317.72z M667.02,319.24
			c20.37,0,23.22-7.23,23.22-43.59c0-23.8-5.71-32.17-23.22-32.17c-19.04,0-23.23,4.38-23.23,37.89
			C643.79,314.87,647.98,319.24,667.02,319.24z"/>
		<path class="st1" d="M727.13,192.08h12.19v16.17h-12.19V192.08z M727.13,232.81h12.19v97.09h-12.19V232.81z"/>
		<path class="st1" d="M762.87,232.81h12.18v12.57h0.39c6.09-10.47,12.75-14.1,26.84-14.1c22.46,0,28.56,11.24,28.56,30.09v68.53
			h-12.19v-65.67c0-11.23-2.47-21.89-18.46-21.89c-14.85,0-25.14,5.71-25.14,26.27v61.29h-12.18V232.81z"/>
		<path class="st1" d="M909.79,312.4h-0.39c-4.95,10.85-13.51,14.08-25.31,14.08c-31.42,0-33.5-20.75-33.5-47.59
			c0-26.84,2.08-47.6,33.5-47.6c12.38,0,19.99,3.06,25.31,14.67h0.39v-13.14h12.19v96.15c0,28.74-8.95,36.74-38.65,36.74
			c-18.84,0-30.46-6.66-30.07-27.04h12.18c0,11.41,4.95,14.85,20.56,14.85c19.8,0,23.8-4.19,23.8-26.85V312.4z M885.23,314.3
			c19.8,0,24.56-7.81,24.56-35.41c0-27.6-4.76-35.41-24.56-35.41c-19.61,0-21.32,9.71-21.32,35.41
			C863.91,304.59,865.62,314.3,885.23,314.3z"/>
		<path class="st1" d="M953.35,299.82c-0.38,16.76,2.66,20.57,20.74,20.57c19.61,0,23.22-2.86,23.22-19.23
			c0-12.76-1.33-13.7-24.36-15.04c-24.37-1.33-31.04-4.95-31.04-26.46c0-20.37,3.81-28.38,32.74-28.38
			c28.37,0,33.89,6.49,33.89,26.85h-12.19c0-14.85-4-15.79-22.28-15.79c-16.94,0-19.99,1.72-19.99,16.75
			c0,13.7,1.72,14.85,22.27,15.99c28.75,1.71,33.13,4,33.13,25.33c0,22.84-4.38,31.03-35.79,31.03c-22.27,0-32.55-2.66-32.55-31.61
			H953.35z"/>
	</g>
	<path class="st1" d="M1011.45,239.94v0.5c0,1.24,0.53,1.32,2.45,1.32c1.89,0,2.15-0.34,2.15-1.6c0-1.54-0.82-1.34-2.43-1.43
		c-2.33-0.14-4.17-0.06-4.17-3.2c0-2.97,1.87-3.05,4.46-3.05c2.2,0,4,0.07,4,2.91v0.35h-2.07v-0.35c0-1.17-0.48-1.21-1.93-1.21
		c-2.06,0-2.39,0.2-2.39,1.35c0,1.32,0.27,1.37,2.38,1.5c3.33,0.2,4.23,0.37,4.23,3.12c0,3.04-1.44,3.3-4.22,3.3
		c-2.39,0-4.52,0.07-4.52-3.02v-0.5H1011.45z"/>
	<path class="st1" d="M1027.64,243.38h-1.86l-3.43-9.06h-0.04l0.17,9.06h-2.07v-10.8h3.33l2.94,8.02h0.06l2.88-8.02h3.4v10.8h-2.07
		l0.17-9.1h-0.07L1027.64,243.38z"/>
</g>
</svg>
