<svg width="24" height="24" viewBox="0 0 24 24" fill="none" xmlns="http://www.w3.org/2000/svg">
<g clip-path="url(#clip0_2343:21461)">
<path d="M5.89721 22.5621H1.44746V8.2461H5.89721V22.5621Z" fill="#28377D"/>
<path d="M3.67469 6.28923C2.25956 6.28923 1.09455 5.12488 1.09455 3.70973C1.09455 2.29458 2.25902 1.1301 3.67415 1.1301C5.08914 1.1301 6.25348 2.29432 6.25374 3.70919C6.25374 5.12407 5.08955 6.28909 3.67469 6.28923Z" fill="#28377D"/>
<path d="M22.5619 22.5621H18.1167V15.6007C18.1167 13.9406 18.0871 11.8037 15.8049 11.8037C13.4896 11.8037 13.1353 13.6123 13.1353 15.4798V22.5616H8.6903V8.2461H12.9576V10.2024H13.0174C13.8863 8.71682 15.5078 7.82622 17.2278 7.89009C21.7331 7.89009 22.5638 10.8535 22.5638 14.7089L22.5619 22.5621Z" fill="#28377D"/>
</g>
<defs>
<clipPath id="clip0_2343:21461">
<rect width="24" height="24" fill="white"/>
</clipPath>
</defs>
</svg>
